<?xml version="1.0" standalone="no"?>
<!DOCTYPE svg PUBLIC "-//W3C//DTD SVG 20010904//EN"
 "http://www.w3.org/TR/2001/REC-SVG-20010904/DTD/svg10.dtd">
<svg version="1.0" xmlns="http://www.w3.org/2000/svg"
 width="1620.000000pt" height="2160.000000pt" viewBox="0 0 1620.000000 2160.000000"
 preserveAspectRatio="xMidYMid meet">

<g transform="translate(0.000000,2160.000000) scale(0.100000,-0.100000)"
fill="#000000" stroke="none">
<path d="M7920 15518 c-229 -11 -876 -109 -1077 -163 -182 -49 -464 -167 -720
-304 -222 -118 -541 -325 -663 -431 -211 -183 -254 -222 -401 -366 -170 -165
-301 -311 -373 -414 -68 -98 -261 -425 -347 -590 -77 -147 -193 -412 -224
-510 -9 -30 -20 -64 -25 -75 -15 -34 -27 -95 -44 -220 -9 -66 -30 -219 -47
-340 -48 -342 -52 -402 -43 -720 4 -159 8 -427 8 -595 1 -168 5 -483 9 -700
11 -560 9 -1999 -3 -2155 -19 -243 -22 -841 -6 -1037 19 -213 37 -276 96 -329
65 -59 159 -72 330 -45 59 9 133 11 245 7 159 -6 248 -6 845 2 173 2 425 5
560 6 313 4 1981 -16 2123 -25 l108 -7 -6 139 -6 139 43 -80 c24 -44 84 -135
133 -201 50 -67 110 -150 135 -184 47 -66 181 -192 264 -249 27 -19 94 -54
150 -78 55 -24 124 -55 152 -67 154 -72 309 -91 739 -91 436 0 647 11 900 47
116 16 256 36 312 44 55 7 140 20 188 29 48 8 111 15 139 15 28 0 76 7 106 15
30 8 145 33 255 56 211 42 282 68 390 145 77 54 175 152 193 193 25 55 29 332
7 486 -9 66 -20 190 -25 275 -5 85 -18 198 -30 250 -17 83 -19 108 -10 195 7
67 6 454 -2 1170 -13 1238 -13 1377 8 1737 21 347 14 1334 -10 1553 -30 278
-77 458 -187 715 -198 467 -260 590 -419 845 -226 360 -418 606 -614 787 -72
66 -156 139 -186 162 -30 22 -104 81 -165 129 -124 99 -260 192 -384 260 -46
26 -85 47 -88 47 -3 0 -89 43 -193 95 -126 63 -239 111 -342 145 -84 28 -191
66 -238 84 -47 18 -110 39 -140 46 -30 7 -89 23 -130 35 -74 23 -258 57 -375
70 -33 3 -112 15 -175 25 -176 29 -489 41 -740 28z m407 -414 c-3 -3 -12 -4
-19 -1 -8 3 -5 6 6 6 11 1 17 -2 13 -5z m86 -44 c160 -14 390 -48 447 -67 25
-8 115 -32 200 -53 85 -21 200 -57 255 -80 55 -23 168 -68 252 -100 204 -79
222 -87 389 -180 185 -104 299 -177 397 -257 42 -34 94 -72 115 -82 20 -11 75
-57 122 -102 47 -45 102 -94 123 -109 21 -16 83 -70 137 -121 55 -51 106 -97
114 -101 8 -4 39 -45 69 -90 30 -46 85 -111 121 -146 78 -75 97 -102 206 -292
88 -153 186 -352 227 -460 13 -36 41 -108 63 -160 57 -141 76 -217 106 -410
26 -174 27 -180 29 -800 2 -378 9 -702 17 -820 16 -245 16 -378 0 -455 -25
-117 -34 -261 -28 -445 3 -102 9 -409 12 -683 l6 -498 -52 51 c-56 55 -181
121 -265 141 -27 6 -115 13 -195 13 -161 2 -167 4 -244 73 -58 51 -84 60 -145
45 -25 -6 -77 -19 -116 -28 -96 -23 -148 -50 -140 -73 5 -17 -11 -19 -297 -24
-340 -7 -436 -14 -691 -57 -98 -17 -187 -30 -198 -30 -11 0 -37 13 -57 29 -20
16 -55 34 -77 41 -22 7 -60 23 -83 37 -24 14 -83 38 -130 55 -73 25 -107 31
-208 35 -115 5 -128 4 -230 -26 -63 -19 -130 -46 -159 -65 -27 -18 -66 -43
-86 -54 -46 -27 -129 -116 -129 -137 0 -19 28 -13 69 12 13 8 61 28 107 44 71
24 100 29 182 29 156 0 299 -44 383 -119 42 -37 43 -40 27 -58 -31 -34 -57
-107 -67 -193 -12 -92 -7 -415 9 -615 44 -557 49 -606 75 -755 9 -47 20 -157
26 -245 6 -88 19 -194 29 -235 10 -41 21 -97 25 -124 4 -27 9 -55 12 -64 12
-29 -130 57 -244 148 -152 122 -276 263 -337 382 -25 51 -60 109 -76 128 -27
30 -30 32 -30 13 0 -16 -16 -31 -59 -56 -32 -19 -68 -38 -80 -42 -21 -6 -28
-21 -12 -27 5 -1 30 -46 56 -98 93 -187 123 -228 273 -378 163 -161 229 -215
334 -271 79 -43 228 -101 258 -101 13 0 17 -5 14 -15 -8 -20 -33 -19 -106 6
-157 54 -365 176 -438 256 -34 37 -35 38 -2 9 44 -41 41 -28 -5 15 -20 18 -33
28 -29 22 4 -7 3 -13 -3 -13 -9 0 -48 45 -161 188 -27 34 -70 100 -95 147 -26
47 -49 85 -51 85 -3 0 -2 -5 2 -12 4 -7 3 -8 -5 -4 -6 4 -20 26 -32 49 l-20
42 20 -25 c27 -34 26 -15 -4 40 -17 31 -24 39 -25 25 -1 -17 -3 -16 -16 8 -8
15 -19 27 -24 27 -5 0 -10 6 -12 14 -2 10 -24 3 -83 -26 -155 -75 -294 -137
-378 -167 -157 -55 -404 -48 -619 19 -79 24 -196 107 -275 194 -45 49 -93 131
-117 199 -6 18 -43 18 -948 13 -598 -3 -965 -9 -1003 -16 -33 -6 -126 -13
-208 -15 -143 -3 -148 -3 -161 18 -25 39 -27 95 -15 298 10 161 10 238 -1 402
-11 176 -11 236 3 457 15 235 15 255 0 272 -14 16 -15 38 -10 178 5 119 3 197
-9 303 -13 114 -15 200 -10 437 3 162 11 349 16 415 7 82 7 328 -1 780 -8 515
-8 703 2 855 7 107 11 254 11 325 -2 118 5 204 38 450 13 95 45 224 69 280 9
22 23 63 31 90 48 180 217 531 375 779 138 216 396 516 553 643 45 36 97 85
116 107 18 23 85 78 148 123 63 45 134 98 159 119 50 42 97 72 189 124 36 20
113 66 171 102 59 35 160 88 225 118 66 29 147 66 181 81 226 103 395 154 718
218 210 42 339 57 595 70 231 12 261 12 393 1z m547 -6254 c83 -16 235 -74
293 -112 22 -14 37 -32 37 -44 0 -21 -15 -27 -25 -10 -41 66 -386 171 -510
155 -45 -5 -55 -4 -55 9 0 28 118 30 260 2z m1908 -27 c22 -26 22 -30 6 -36
-12 -4 -24 2 -40 22 -13 16 -21 32 -18 37 10 15 29 7 52 -23z m-2028 -18 c0
-4 -19 -5 -42 -2 -31 3 -38 6 -24 11 22 7 66 1 66 -9z m1493 -38 c-13 -2 -33
-2 -45 0 -13 2 -3 4 22 4 25 0 35 -2 23 -4z m-1513 -36 c223 -71 330 -114 330
-135 0 -10 -8 -13 -25 -10 -13 3 -22 2 -20 -3 3 -4 1 -10 -3 -13 -5 -3 -27 10
-50 29 -31 27 -76 47 -193 85 -136 44 -163 50 -239 50 -61 0 -104 -6 -145 -20
-68 -24 -85 -25 -85 -6 0 8 28 22 68 34 99 30 247 26 362 -11z m1308 26 c-10
-2 -26 -2 -35 0 -10 3 -2 5 17 5 19 0 27 -2 18 -5z m1164 -19 c28 -14 81 -45
117 -69 36 -23 89 -57 118 -74 96 -60 305 -305 371 -436 67 -134 156 -437 212
-720 12 -60 33 -157 47 -215 37 -152 37 -415 1 -483 -72 -137 -222 -186 -758
-248 -90 -10 -219 -30 -360 -56 -47 -8 -154 -17 -239 -19 -144 -2 -157 -1
-207 21 -87 39 -121 70 -158 149 -18 39 -41 102 -50 139 -17 69 -56 394 -76
637 -22 260 -41 343 -138 600 -110 289 -164 380 -309 521 -107 103 -143 122
-296 156 -81 19 -100 33 -43 33 49 0 147 -27 224 -61 54 -24 85 -49 158 -123
135 -138 192 -240 309 -546 89 -232 107 -325 140 -695 52 -592 100 -735 262
-789 62 -21 287 -16 438 8 241 39 287 46 400 60 66 9 147 18 180 21 96 10 162
24 283 61 88 27 122 43 153 71 60 54 71 82 68 175 -1 57 2 82 11 88 18 11 6
143 -24 274 -13 56 -34 151 -46 211 -52 265 -130 532 -203 696 -52 118 -278
387 -376 448 -25 15 -82 50 -126 78 -44 28 -97 58 -117 68 -38 17 -44 25 -31
38 9 10 8 10 65 -19z m-1325 10 c-3 -3 -12 -4 -19 -1 -8 3 -5 6 6 6 11 1 17
-2 13 -5z m-612 -14 c3 -6 -1 -7 -9 -4 -18 7 -21 14 -7 14 6 0 13 -4 16 -10z
m-256 -218 c-19 -20 -42 -48 -52 -62 -17 -24 -17 -24 -1 10 18 38 62 90 77 90
5 0 -6 -17 -24 -38z m369 -834 c7 -7 12 -22 12 -35 0 -20 -5 -23 -40 -23 -62
0 -69 -24 -39 -142 13 -49 45 -68 66 -39 8 12 19 19 24 16 13 -8 11 -135 -2
-174 -10 -28 -15 -32 -42 -29 -49 5 -67 40 -68 133 -1 44 -5 85 -10 91 -5 6
-12 38 -15 70 -6 57 -5 60 32 102 38 43 61 51 82 30z m-963 -878 c36 -55 82
-119 103 -143 21 -23 57 -65 79 -93 39 -50 168 -169 228 -211 42 -29 246 -133
261 -133 18 0 26 -30 10 -36 -8 -3 -73 25 -145 62 -148 76 -285 182 -369 286
-28 35 -69 84 -91 109 -79 90 -174 259 -146 259 3 0 34 -45 70 -100z m3552
-262 c43 -40 37 -118 -14 -158 -35 -27 -67 -25 -103 8 -57 50 -49 147 13 172
30 12 77 2 104 -22z m269 -126 c-9 -17 -20 -33 -25 -36 -5 -4 0 12 12 33 25
46 36 48 13 3z m-1475 -43 c16 -17 32 -42 35 -55 8 -30 -23 -92 -57 -117 -22
-16 -32 -17 -67 -8 -35 10 -43 17 -58 57 -24 64 -12 113 36 136 51 26 78 22
111 -13z m-63 -426 c-10 -2 -28 -2 -40 0 -13 2 -5 4 17 4 22 1 32 -1 23 -4z
m-75 -10 c-7 -2 -21 -2 -30 0 -10 3 -4 5 12 5 17 0 24 -2 18 -5z m-70 -10 c-7
-2 -19 -2 -25 0 -7 3 -2 5 12 5 14 0 19 -2 13 -5z"/>
<path d="M5735 13661 c-22 -9 -53 -41 -40 -41 4 0 2 -7 -5 -15 -9 -11 -10 -18
-1 -28 14 -18 176 -127 188 -127 5 0 16 -9 26 -20 23 -27 67 -27 67 0 0 11 7
23 15 26 9 4 15 11 14 18 -4 29 2 46 16 46 17 0 21 35 5 45 -17 11 -11 25 11
25 15 0 20 5 17 23 -2 17 -13 25 -49 33 -63 16 -239 26 -264 15z"/>
<path d="M6786 13273 c-4 -9 -2 -21 3 -26 15 -15 46 -3 49 21 3 18 -1 22 -21
22 -14 0 -28 -7 -31 -17z"/>
<path d="M6716 12711 c-9 -14 20 -74 69 -144 45 -65 122 -127 156 -127 10 0
21 -4 24 -10 9 -14 88 -12 106 3 39 33 52 56 40 71 -7 8 -14 31 -16 51 -4 41
-29 85 -49 85 -7 0 -19 -7 -26 -15 -16 -20 -73 -19 -118 1 -21 9 -51 22 -68
30 -16 7 -42 25 -58 39 -28 26 -51 32 -60 16z"/>
<path d="M8033 10253 c-42 -60 -52 -185 -21 -266 22 -57 89 -42 123 29 14 30
16 52 11 113 -8 93 -31 145 -67 149 -20 2 -32 -4 -46 -25z"/>
<path d="M8750 6176 c0 -3 15 -15 33 -27 l32 -23 -24 27 c-22 24 -41 35 -41
23z"/>
</g>
</svg>
